{
	"asset":{
		"generator":"Khronos glTF Blender I/O v4.2.57",
		"version":"2.0"
	},
	"extensionsUsed":[
		"KHR_materials_specular"
	],
	"scene":0,
	"scenes":[
		{
			"name":"Scene",
			"nodes":[
				5
			]
		}
	],
	"nodes":[
		{
			"name":"Cybertron",
			"rotation":[
				-0.7071067690849304,
				0,
				0,
				0.7071067690849304
			],
			"scale":[
				1.0000001192092896,
				1.0000001192092896,
				1.0000001192092896
			],
			"translation":[
				-1.1641532182693481e-10,
				2.9802322387695312e-08,
				0
			]
		},
		{
			"mesh":0,
			"name":"blank",
			"skin":0
		},
		{
			"mesh":1,
			"name":"blank.001",
			"skin":0
		},
		{
			"mesh":2,
			"name":"blank.002",
			"skin":0
		},
		{
			"mesh":3,
			"name":"cybertron.smd",
			"skin":0
		},
		{
			"children":[
				1,
				2,
				3,
				4,
				0
			],
			"name":"cybertron_ARM",
			"scale":[
				440.41851806640625,
				440.41851806640625,
				440.41851806640625
			],
			"translation":[
				-0.7591639161109924,
				110.25959777832031,
				10.326287269592285
			]
		}
	],
	"materials":[
		{
			"doubleSided":true,
			"extensions":{
				"KHR_materials_specular":{
					"specularFactor":0.03125
				}
			},
			"name":"TFWFC_(3)",
			"pbrMetallicRoughness":{
				"baseColorTexture":{
					"index":0
				},
				"metallicFactor":0,
				"roughnessFactor":0.015625
			}
		},
		{
			"doubleSided":true,
			"extensions":{
				"KHR_materials_specular":{
					"specularFactor":0.03125
				}
			},
			"name":"TFWFC_(1)",
			"pbrMetallicRoughness":{
				"baseColorTexture":{
					"index":1
				},
				"metallicFactor":0,
				"roughnessFactor":0.015625
			}
		},
		{
			"doubleSided":true,
			"extensions":{
				"KHR_materials_specular":{
					"specularFactor":0.03125
				}
			},
			"name":"TFWFC_(2)",
			"pbrMetallicRoughness":{
				"baseColorTexture":{
					"index":2
				},
				"metallicFactor":0,
				"roughnessFactor":0.015625
			}
		}
	],
	"meshes":[
		{
			"name":"planets\\cybertron.mdl_clamped1_blank_MESH",
			"primitives":[
				{
					"attributes":{
						"POSITION":0,
						"NORMAL":1,
						"TEXCOORD_0":2,
						"JOINTS_0":3,
						"WEIGHTS_0":4
					},
					"indices":5,
					"material":0
				},
				{
					"attributes":{
						"POSITION":6,
						"NORMAL":7,
						"TEXCOORD_0":8,
						"JOINTS_0":9,
						"WEIGHTS_0":10
					},
					"indices":11,
					"material":1
				}
			]
		},
		{
			"name":"planets\\cybertron.mdl_clamped2_blank_MESH",
			"primitives":[
				{
					"attributes":{
						"POSITION":13,
						"NORMAL":14,
						"TEXCOORD_0":15,
						"JOINTS_0":16,
						"WEIGHTS_0":17
					},
					"indices":18,
					"material":1
				}
			]
		},
		{
			"name":"planets\\cybertron.mdl_clamped3_blank_MESH",
			"primitives":[
				{
					"attributes":{
						"POSITION":19,
						"NORMAL":20,
						"TEXCOORD_0":21,
						"JOINTS_0":22,
						"WEIGHTS_0":23
					},
					"indices":24,
					"material":1
				}
			]
		},
		{
			"name":"planets\\cybertron.mdl_cybertron_cybertron.smd_MESH",
			"primitives":[
				{
					"attributes":{
						"POSITION":25,
						"NORMAL":26,
						"TEXCOORD_0":27,
						"JOINTS_0":28,
						"WEIGHTS_0":29
					},
					"indices":30,
					"material":2
				},
				{
					"attributes":{
						"POSITION":31,
						"NORMAL":32,
						"TEXCOORD_0":33,
						"JOINTS_0":34,
						"WEIGHTS_0":35
					},
					"indices":36,
					"material":0
				}
			]
		}
	],
	"textures":[
		{
			"sampler":0,
			"source":0
		},
		{
			"sampler":0,
			"source":1
		},
		{
			"sampler":0,
			"source":2
		}
	],
	"images":[
		{
			"mimeType":"image/png",
			"name":"TFWFC_(3)",
			"uri":"TFWFC_3.png"
		},
		{
			"mimeType":"image/png",
			"name":"TFWFC_(1)",
			"uri":"TFWFC_1.png"
		},
		{
			"mimeType":"image/png",
			"name":"TFWFC_(2)",
			"uri":"TFWFC_2.png"
		}
	],
	"skins":[
		{
			"inverseBindMatrices":12,
			"joints":[
				0
			],
			"name":"cybertron_ARM"
		}
	],
	"accessors":[
		{
			"bufferView":0,
			"componentType":5126,
			"count":118,
			"max":[
				-18.942750930786133,
				77.79460144042969,
				-4.855368614196777
			],
			"min":[
				-56.720279693603516,
				50.302337646484375,
				-19.21942138671875
			],
			"type":"VEC3"
		},
		{
			"bufferView":1,
			"componentType":5126,
			"count":118,
			"type":"VEC3"
		},
		{
			"bufferView":2,
			"componentType":5126,
			"count":118,
			"type":"VEC2"
		},
		{
			"bufferView":3,
			"componentType":5121,
			"count":118,
			"type":"VEC4"
		},
		{
			"bufferView":4,
			"componentType":5126,
			"count":118,
			"type":"VEC4"
		},
		{
			"bufferView":5,
			"componentType":5123,
			"count":324,
			"type":"SCALAR"
		},
		{
			"bufferView":6,
			"componentType":5126,
			"count":21894,
			"max":[
				83.79414367675781,
				195.93212890625,
				93.77799224853516
			],
			"min":[
				-84.73523712158203,
				31.91905975341797,
				-69.07809448242188
			],
			"type":"VEC3"
		},
		{
			"bufferView":7,
			"componentType":5126,
			"count":21894,
			"type":"VEC3"
		},
		{
			"bufferView":8,
			"componentType":5126,
			"count":21894,
			"type":"VEC2"
		},
		{
			"bufferView":9,
			"componentType":5121,
			"count":21894,
			"type":"VEC4"
		},
		{
			"bufferView":10,
			"componentType":5126,
			"count":21894,
			"type":"VEC4"
		},
		{
			"bufferView":11,
			"componentType":5123,
			"count":77091,
			"type":"SCALAR"
		},
		{
			"bufferView":12,
			"componentType":5126,
			"count":1,
			"type":"MAT4"
		},
		{
			"bufferView":13,
			"componentType":5126,
			"count":22702,
			"max":[
				82.54403686523438,
				198.22174072265625,
				104.32418823242188
			],
			"min":[
				-86.99717712402344,
				30.813262939453125,
				-73.60868072509766
			],
			"type":"VEC3"
		},
		{
			"bufferView":14,
			"componentType":5126,
			"count":22702,
			"type":"VEC3"
		},
		{
			"bufferView":15,
			"componentType":5126,
			"count":22702,
			"type":"VEC2"
		},
		{
			"bufferView":16,
			"componentType":5121,
			"count":22702,
			"type":"VEC4"
		},
		{
			"bufferView":17,
			"componentType":5126,
			"count":22702,
			"type":"VEC4"
		},
		{
			"bufferView":18,
			"componentType":5123,
			"count":60123,
			"type":"SCALAR"
		},
		{
			"bufferView":19,
			"componentType":5126,
			"count":4458,
			"max":[
				86.53556823730469,
				190.69259643554688,
				95.30244445800781
			],
			"min":[
				-96.21943664550781,
				38.458213806152344,
				-72.5876235961914
			],
			"type":"VEC3"
		},
		{
			"bufferView":20,
			"componentType":5126,
			"count":4458,
			"type":"VEC3"
		},
		{
			"bufferView":21,
			"componentType":5126,
			"count":4458,
			"type":"VEC2"
		},
		{
			"bufferView":22,
			"componentType":5121,
			"count":4458,
			"type":"VEC4"
		},
		{
			"bufferView":23,
			"componentType":5126,
			"count":4458,
			"type":"VEC4"
		},
		{
			"bufferView":24,
			"componentType":5123,
			"count":7899,
			"type":"SCALAR"
		},
		{
			"bufferView":25,
			"componentType":5126,
			"count":13288,
			"max":[
				81.4994888305664,
				190.43081665039062,
				90.49751281738281
			],
			"min":[
				-89.14584350585938,
				23.378070831298828,
				-90.70660400390625
			],
			"type":"VEC3"
		},
		{
			"bufferView":26,
			"componentType":5126,
			"count":13288,
			"type":"VEC3"
		},
		{
			"bufferView":27,
			"componentType":5126,
			"count":13288,
			"type":"VEC2"
		},
		{
			"bufferView":28,
			"componentType":5121,
			"count":13288,
			"type":"VEC4"
		},
		{
			"bufferView":29,
			"componentType":5126,
			"count":13288,
			"type":"VEC4"
		},
		{
			"bufferView":30,
			"componentType":5123,
			"count":55776,
			"type":"SCALAR"
		},
		{
			"bufferView":31,
			"componentType":5126,
			"count":8910,
			"max":[
				67.45550537109375,
				178.47427368164062,
				78.42350006103516
			],
			"min":[
				-68.92182159423828,
				41.05994415283203,
				-57.78224563598633
			],
			"type":"VEC3"
		},
		{
			"bufferView":32,
			"componentType":5126,
			"count":8910,
			"type":"VEC3"
		},
		{
			"bufferView":33,
			"componentType":5126,
			"count":8910,
			"type":"VEC2"
		},
		{
			"bufferView":34,
			"componentType":5121,
			"count":8910,
			"type":"VEC4"
		},
		{
			"bufferView":35,
			"componentType":5126,
			"count":8910,
			"type":"VEC4"
		},
		{
			"bufferView":36,
			"componentType":5123,
			"count":35196,
			"type":"SCALAR"
		}
	],
	"bufferViews":[
		{
			"buffer":0,
			"byteLength":1416,
			"byteOffset":0,
			"target":34962
		},
		{
			"buffer":0,
			"byteLength":1416,
			"byteOffset":1416,
			"target":34962
		},
		{
			"buffer":0,
			"byteLength":944,
			"byteOffset":2832,
			"target":34962
		},
		{
			"buffer":0,
			"byteLength":472,
			"byteOffset":3776,
			"target":34962
		},
		{
			"buffer":0,
			"byteLength":1888,
			"byteOffset":4248,
			"target":34962
		},
		{
			"buffer":0,
			"byteLength":648,
			"byteOffset":6136,
			"target":34963
		},
		{
			"buffer":0,
			"byteLength":262728,
			"byteOffset":6784,
			"target":34962
		},
		{
			"buffer":0,
			"byteLength":262728,
			"byteOffset":269512,
			"target":34962
		},
		{
			"buffer":0,
			"byteLength":175152,
			"byteOffset":532240,
			"target":34962
		},
		{
			"buffer":0,
			"byteLength":87576,
			"byteOffset":707392,
			"target":34962
		},
		{
			"buffer":0,
			"byteLength":350304,
			"byteOffset":794968,
			"target":34962
		},
		{
			"buffer":0,
			"byteLength":154182,
			"byteOffset":1145272,
			"target":34963
		},
		{
			"buffer":0,
			"byteLength":64,
			"byteOffset":1299456
		},
		{
			"buffer":0,
			"byteLength":272424,
			"byteOffset":1299520,
			"target":34962
		},
		{
			"buffer":0,
			"byteLength":272424,
			"byteOffset":1571944,
			"target":34962
		},
		{
			"buffer":0,
			"byteLength":181616,
			"byteOffset":1844368,
			"target":34962
		},
		{
			"buffer":0,
			"byteLength":90808,
			"byteOffset":2025984,
			"target":34962
		},
		{
			"buffer":0,
			"byteLength":363232,
			"byteOffset":2116792,
			"target":34962
		},
		{
			"buffer":0,
			"byteLength":120246,
			"byteOffset":2480024,
			"target":34963
		},
		{
			"buffer":0,
			"byteLength":53496,
			"byteOffset":2600272,
			"target":34962
		},
		{
			"buffer":0,
			"byteLength":53496,
			"byteOffset":2653768,
			"target":34962
		},
		{
			"buffer":0,
			"byteLength":35664,
			"byteOffset":2707264,
			"target":34962
		},
		{
			"buffer":0,
			"byteLength":17832,
			"byteOffset":2742928,
			"target":34962
		},
		{
			"buffer":0,
			"byteLength":71328,
			"byteOffset":2760760,
			"target":34962
		},
		{
			"buffer":0,
			"byteLength":15798,
			"byteOffset":2832088,
			"target":34963
		},
		{
			"buffer":0,
			"byteLength":159456,
			"byteOffset":2847888,
			"target":34962
		},
		{
			"buffer":0,
			"byteLength":159456,
			"byteOffset":3007344,
			"target":34962
		},
		{
			"buffer":0,
			"byteLength":106304,
			"byteOffset":3166800,
			"target":34962
		},
		{
			"buffer":0,
			"byteLength":53152,
			"byteOffset":3273104,
			"target":34962
		},
		{
			"buffer":0,
			"byteLength":212608,
			"byteOffset":3326256,
			"target":34962
		},
		{
			"buffer":0,
			"byteLength":111552,
			"byteOffset":3538864,
			"target":34963
		},
		{
			"buffer":0,
			"byteLength":106920,
			"byteOffset":3650416,
			"target":34962
		},
		{
			"buffer":0,
			"byteLength":106920,
			"byteOffset":3757336,
			"target":34962
		},
		{
			"buffer":0,
			"byteLength":71280,
			"byteOffset":3864256,
			"target":34962
		},
		{
			"buffer":0,
			"byteLength":35640,
			"byteOffset":3935536,
			"target":34962
		},
		{
			"buffer":0,
			"byteLength":142560,
			"byteOffset":3971176,
			"target":34962
		},
		{
			"buffer":0,
			"byteLength":70392,
			"byteOffset":4113736,
			"target":34963
		}
	],
	"samplers":[
		{
			"magFilter":9729,
			"minFilter":9987
		}
	],
	"buffers":[
		{
			"byteLength":4184128,
			"uri":"untitled.bin"
		}
	]
}
